<?xml version="1.0" encoding="utf-8"?>
<!-- Generator: Adobe Illustrator 22.1.0, SVG Export Plug-In . SVG Version: 6.00 Build 0)  -->
<svg version="1.1" id="Capa_1" xmlns="http://www.w3.org/2000/svg" xmlns:xlink="http://www.w3.org/1999/xlink" x="0px" y="0px"
	 viewBox="0 0 32 32" style="enable-background:new 0 0 32 32;" xml:space="preserve">
<style type="text/css">
	.st0{fill:#00D1B2;stroke:#FFFFFF;stroke-width:0.5;stroke-miterlimit:10;}
</style>
<title>HomeEmpty</title>
<desc>Created with Sketch.</desc>
<g id="HomeEmpty">
	<path id="Shape" class="st0" d="M30.6,10.6L18.6,0.9c-1.5-1.2-3.6-1.2-5,0l0,0L1.7,10.6C1.2,10.9,1,11.4,1,12v18.2
		c0,1,0.8,1.8,1.8,1.8h8c1,0,1.8-0.8,1.8-1.8V18.7h7.1v11.5c0,1,0.8,1.8,1.8,1.8h8c1,0,1.8-0.8,1.8-1.8V12
		C31.2,11.4,31,10.9,30.6,10.6z M29.4,30.2h-8V18.7c0-1-0.8-1.8-1.8-1.8h-7.1c-1,0-1.8,0.8-1.8,1.8v11.6h-8V12l11.9-9.7
		c0.8-0.7,2-0.7,2.8,0L29.5,12L29.4,30.2L29.4,30.2z"/>
</g>
</svg>
