<?xml version="1.0" encoding="utf-8"?>
<!-- Generator: Adobe Illustrator 22.1.0, SVG Export Plug-In . SVG Version: 6.00 Build 0)  -->
<svg version="1.1" xmlns="http://www.w3.org/2000/svg" xmlns:xlink="http://www.w3.org/1999/xlink" x="0px" y="0px"
	 viewBox="0 0 300 300" style="enable-background:new 0 0 300 300;" xml:space="preserve">
<style type="text/css">
	.st0{display:none;}
	.st1{display:inline;fill:#00D1B2;}
	.st2{fill:#FFFFFF;}
	.st3{fill:none;}
	.st4{font-family:'NovaCut';}
	.st5{font-size:82px;}
	.st6{display:inline;}
	.st7{display:inline;fill:none;}
</style>
<g id="Capa_1" class="st0">
	<rect class="st1" width="300" height="300"/>
</g>
<g id="Capa_2">
	<g>
		<path class="st2" d="M395.5,72.2c-7.7,0-13.9-2.4-18.4-7.2c-4.5-4.7-6.7-10.6-6.7-17.7l9.5-4.5h0.5v4.5c0,4.4,1.2,8,3.6,10.8
			c2.9,3.4,6.8,5.1,11.6,5.1c4.7,0,8.6-1.7,11.6-5.1c2.4-2.8,3.6-6.4,3.6-10.8c0-4.3-1-7.6-2.9-9.8c-2.7-3.1-6.8-4.7-12.3-4.7
			c-6.1,0-11.4-2-15.6-6c-3.3-3.1-5-7.5-5-13.1V9L395.5-7c6.3,0.4,11.1,2,14.5,4.8c4.1,3.4,6.2,8.3,6.2,14.8l-9.5,4.5h-0.5v-4.5
			c0-4.1-1.1-7.1-3.2-9c-2.1-1.8-4.6-2.7-7.5-2.7c-3.2,0-5.8,1-7.8,3c-2,2-2.9,4.9-2.9,8.7c0,3.6,0.7,6.3,2.2,7.9
			c2,2.2,4.8,3.3,8.4,3.3c7.9,0,14.1,1.9,18.5,5.7c4.5,3.9,6.7,9.8,6.7,17.7v5.6L395.5,72.2z"/>
	</g>
	<rect y="111" class="st3" width="300" height="92"/>
	<text transform="matrix(1 0 0 1 31.8848 173.0732)" class="st2 st4 st5">Scope</text>
</g>
<g id="Capa_2_copia" class="st0">
	<g class="st6">
		<path class="st2" d="M395.5,72.2c-7.7,0-13.9-2.4-18.4-7.2c-4.5-4.7-6.7-10.6-6.7-17.7l9.5-4.5h0.5v4.5c0,4.4,1.2,8,3.6,10.8
			c2.9,3.4,6.8,5.1,11.6,5.1c4.7,0,8.6-1.7,11.6-5.1c2.4-2.8,3.6-6.4,3.6-10.8c0-4.3-1-7.6-2.9-9.8c-2.7-3.1-6.8-4.7-12.3-4.7
			c-6.1,0-11.4-2-15.6-6c-3.3-3.1-5-7.5-5-13.1V9L395.5-7c6.3,0.4,11.1,2,14.5,4.8c4.1,3.4,6.2,8.3,6.2,14.8l-9.5,4.5h-0.5v-4.5
			c0-4.1-1.1-7.1-3.2-9c-2.1-1.8-4.6-2.7-7.5-2.7c-3.2,0-5.8,1-7.8,3c-2,2-2.9,4.9-2.9,8.7c0,3.6,0.7,6.3,2.2,7.9
			c2,2.2,4.8,3.3,8.4,3.3c7.9,0,14.1,1.9,18.5,5.7c4.5,3.9,6.7,9.8,6.7,17.7v5.6L395.5,72.2z"/>
	</g>
	<rect y="111" class="st7" width="300" height="92"/>
	<text transform="matrix(1 0 0 1 31.8848 173.0732)" class="st1 st4 st5">Scope</text>
</g>
</svg>
