<?xml version="1.0" encoding="utf-8"?>
<!-- Generator: Adobe Illustrator 22.1.0, SVG Export Plug-In . SVG Version: 6.00 Build 0)  -->
<svg version="1.1" id="Capa_1" xmlns="http://www.w3.org/2000/svg" xmlns:xlink="http://www.w3.org/1999/xlink" x="0px" y="0px"
	 viewBox="0 0 32 32" style="enable-background:new 0 0 32 32;" xml:space="preserve">
<style type="text/css">
	.st0{fill:#00D1B2;stroke:#00D1B2;stroke-width:1.2;stroke-miterlimit:10;}
</style>
<g>
	<path class="st0" d="M30.9,29.6l-7.4-7.4c2-2.3,3.2-5.3,3.2-8.5c0-7.2-5.8-13-13-13c-7.2,0-13,5.8-13,13s5.8,13,13,13
		c3.2,0,6.2-1.2,8.5-3.2l7.4,7.4c0.2,0.2,0.4,0.3,0.6,0.3s0.5-0.1,0.6-0.3C31.3,30.6,31.3,30,30.9,29.6z M2.6,13.8
		c0-6.1,5-11.1,11.1-11.1c6.1,0,11.1,5,11.1,11.1s-5,11.1-11.1,11.1C7.6,24.9,2.6,19.9,2.6,13.8z"/>
</g>
</svg>
