<?xml version="1.0" encoding="utf-8"?>
<!-- Generator: Adobe Illustrator 22.1.0, SVG Export Plug-In . SVG Version: 6.00 Build 0)  -->
<svg version="1.1" id="Capa_1" xmlns="http://www.w3.org/2000/svg" xmlns:xlink="http://www.w3.org/1999/xlink" x="0px" y="0px"
	 viewBox="0 0 32 32" style="enable-background:new 0 0 32 32;" xml:space="preserve">
<style type="text/css">
	.st0{fill:#00D1B2;}
</style>
<g>
	<path class="st0" d="M15.8,26.6c-2.1,0-3.7-0.6-4.9-1.9C9.6,23.4,9,21.9,9,20l2.6-1.2h0.1V20c0,1.2,0.3,2.1,1,2.9
		c0.8,0.9,1.8,1.4,3.1,1.4c1.3,0,2.3-0.5,3.1-1.4c0.6-0.8,1-1.7,1-2.9c0-1.2-0.3-2-0.8-2.6c-0.7-0.8-1.8-1.3-3.3-1.3
		c-1.6,0-3.1-0.5-4.2-1.6c-0.9-0.8-1.3-2-1.3-3.5V9.7l5.5-4.3c1.7,0.1,3,0.5,3.9,1.3c1.1,0.9,1.7,2.2,1.7,4l-2.6,1.2h-0.1v-1.2
		c0-1.1-0.3-1.9-0.9-2.4c-0.6-0.5-1.2-0.7-2-0.7c-0.9,0-1.6,0.3-2.1,0.8c-0.5,0.5-0.8,1.3-0.8,2.3c0,1,0.2,1.7,0.6,2.1
		c0.5,0.6,1.3,0.9,2.3,0.9c2.1,0,3.8,0.5,5,1.5c1.2,1,1.8,2.6,1.8,4.8v1.5L15.8,26.6z"/>
</g>
<g>
	<path class="st0" d="M16,1.5C24,1.5,30.5,8,30.5,16S24,30.5,16,30.5S1.5,24,1.5,16S8,1.5,16,1.5 M16,0C7.2,0,0,7.2,0,16
		s7.2,16,16,16s16-7.2,16-16S24.8,0,16,0L16,0z"/>
</g>
</svg>
