<?xml version="1.0" encoding="utf-8"?>
<!-- Generator: Adobe Illustrator 22.1.0, SVG Export Plug-In . SVG Version: 6.00 Build 0)  -->
<svg version="1.1" id="Capa_1" xmlns="http://www.w3.org/2000/svg" xmlns:xlink="http://www.w3.org/1999/xlink" x="0px" y="0px"
	 viewBox="0 0 32 32" style="enable-background:new 0 0 32 32;" xml:space="preserve">
<style type="text/css">
	.st0{fill:#00D1B2;}
</style>
<g>
	<path class="st0" d="M16.2,32c-3.1,0-5.6-1-7.4-2.9C6.9,27.2,6,24.8,6,21.9l3.8-1.8h0.2v1.8c0,1.8,0.5,3.2,1.5,4.4
		c1.2,1.4,2.7,2.1,4.7,2.1c1.9,0,3.5-0.7,4.7-2.1c1-1.1,1.5-2.6,1.5-4.4c0-1.7-0.4-3.1-1.2-4c-1.1-1.3-2.7-1.9-5-1.9
		c-2.5,0-4.6-0.8-6.3-2.4c-1.3-1.3-2-3-2-5.3V6.5L16.2,0c2.5,0.2,4.5,0.8,5.9,1.9c1.7,1.4,2.5,3.4,2.5,6l-3.8,1.8h-0.2V7.9
		c0-1.7-0.4-2.9-1.3-3.6c-0.8-0.7-1.9-1.1-3-1.1c-1.3,0-2.3,0.4-3.2,1.2s-1.2,2-1.2,3.5c0,1.5,0.3,2.5,0.9,3.2
		c0.8,0.9,1.9,1.3,3.4,1.3c3.2,0,5.7,0.8,7.5,2.3c1.8,1.6,2.7,4,2.7,7.2v2.3L16.2,32z"/>
</g>
</svg>
