<?xml version="1.0" encoding="utf-8"?>
<!-- Generator: Adobe Illustrator 22.1.0, SVG Export Plug-In . SVG Version: 6.00 Build 0)  -->
<svg version="1.1" id="Capa_1" xmlns="http://www.w3.org/2000/svg" xmlns:xlink="http://www.w3.org/1999/xlink" x="0px" y="0px"
	 viewBox="0 0 612 612" style="enable-background:new 0 0 612 612;" xml:space="preserve">
<style type="text/css">
	.st0{fill:#00D1B2;}
</style>
<g>
	<path class="st0" d="M612,306C612,137.4,474.6,0,306,0S0,137.4,0,306c0,92.9,42.1,176.4,107.7,232.6c0.8,0.8,1.6,1.6,3.1,2.3
		c53.1,44.5,121,71.1,196,71.1c73.4,0,141.3-26.5,194.4-69.5c3.1-0.8,5.5-3.1,7-5.5C571.5,480.1,612,398.1,612,306z M28.1,306
		C28.1,153,153,28.1,306,28.1S584,153,584,306c0,75-29.6,142.8-78.1,192.8c-7.8-36.7-31.2-99.2-103.1-139.7
		c16.4-20.3,25.7-46.8,25.7-75c0-67.1-54.6-121.8-121.8-121.8S185,217.1,185,284.2c0,28.1,10.1,53.8,25.7,75
		c-72.5,40.5-95.9,103-102.9,139.7C58.5,449.7,28.1,381,28.1,306z M212.4,284.9c0-51.5,42.1-93.7,93.7-93.7s93.7,42.1,93.7,93.7
		s-42.1,93.7-93.7,93.7S212.4,336.5,212.4,284.9z M132.7,523c1.6-22.6,14-99.2,98.4-142.1c21.1,16.4,46.8,25.7,75,25.7
		s54.6-10.1,75.8-26.5c83.6,42.9,96.8,117.9,99.2,142.1c-47.6,38.2-108.5,61.7-174.1,61.7C240.5,584,180.3,561.3,132.7,523z"/>
</g>
</svg>
